solid 
   facet normal 0.000000e+000 0.000000e+000 1.000000e+000
      outer loop
         vertex 3.460908e+000 -5.216479e-001 2.000000e+000
         vertex 3.500000e+000 0.000000e+000 2.000000e+000
         vertex 1.500000e+000 0.000000e+000 2.000000e+000
      endloop
   endfacet
   facet normal 0.000000e+000 0.000000e+000 1.000000e+000
      outer loop
         vertex 3.460908e+000 5.216479e-001 2.000000e+000
         vertex 3.344505e+000 1.031643e+000 2.000000e+000
         vertex 1.459567e+000 3.459238e-001 2.000000e+000
      endloop
   endfacet
   facet normal 0.000000e+000 0.000000e+000 1.000000e+000
      outer loop
         vertex 3.153391e+000 1.518593e+000 2.000000e+000
         vertex 2.891836e+000 1.971620e+000 2.000000e+000
         vertex 1.500000e+000 1.500000e+000 2.000000e+000
      endloop
   endfacet
   facet normal 0.000000e+000 0.000000e+000 1.000000e+000
      outer loop
         vertex 2.565681e+000 2.380605e+000 2.000000e+000
         vertex 2.182214e+000 2.736410e+000 2.000000e+000
         vertex 1.500000e+000 1.500000e+000 2.000000e+000
      endloop
   endfacet
   facet normal 0.000000e+000 0.000000e+000 1.000000e+000
      outer loop
         vertex 1.750000e+000 3.031089e+000 2.000000e+000
         vertex 1.278694e+000 3.258058e+000 2.000000e+000
         vertex 1.500000e+000 1.500000e+000 2.000000e+000
      endloop
   endfacet
   facet normal -0.000000e+000 0.000000e+000 1.000000e+000
      outer loop
         vertex -1.278694e+000 3.258058e+000 2.000000e+000
         vertex -1.750000e+000 3.031089e+000 2.000000e+000
         vertex -1.500000e+000 1.500000e+000 2.000000e+000
      endloop
   endfacet
   facet normal -0.000000e+000 0.000000e+000 1.000000e+000
      outer loop
         vertex -2.182214e+000 2.736410e+000 2.000000e+000
         vertex -2.565681e+000 2.380605e+000 2.000000e+000
         vertex -1.500000e+000 1.500000e+000 2.000000e+000
      endloop
   endfacet
   facet normal -0.000000e+000 0.000000e+000 1.000000e+000
      outer loop
         vertex -2.891836e+000 1.971620e+000 2.000000e+000
         vertex -3.153391e+000 1.518593e+000 2.000000e+000
         vertex -1.500000e+000 1.500000e+000 2.000000e+000
      endloop
   endfacet
   facet normal 0.000000e+000 -0.000000e+000 1.000000e+000
      outer loop
         vertex -3.344505e+000 -1.031643e+000 2.000000e+000
         vertex -3.153391e+000 -1.518593e+000 2.000000e+000
         vertex -1.500000e+000 -1.500000e+000 2.000000e+000
      endloop
   endfacet
   facet normal 0.000000e+000 -0.000000e+000 1.000000e+000
      outer loop
         vertex -2.891836e+000 -1.971620e+000 2.000000e+000
         vertex -2.565681e+000 -2.380605e+000 2.000000e+000
         vertex -1.500000e+000 -1.500000e+000 2.000000e+000
      endloop
   endfacet
   facet normal 0.000000e+000 -0.000000e+000 1.000000e+000
      outer loop
         vertex -2.182214e+000 -2.736410e+000 2.000000e+000
         vertex -1.750000e+000 -3.031089e+000 2.000000e+000
         vertex -1.500000e+000 -1.500000e+000 2.000000e+000
      endloop
   endfacet
   facet normal 0.000000e+000 0.000000e+000 1.000000e+000
      outer loop
         vertex 1.278694e+000 -3.258058e+000 2.000000e+000
         vertex 1.750000e+000 -3.031089e+000 2.000000e+000
         vertex 1.500000e+000 -1.500000e+000 2.000000e+000
      endloop
   endfacet
   facet normal 0.000000e+000 0.000000e+000 1.000000e+000
      outer loop
         vertex 2.182214e+000 -2.736410e+000 2.000000e+000
         vertex 2.565681e+000 -2.380605e+000 2.000000e+000
         vertex 1.500000e+000 -1.500000e+000 2.000000e+000
      endloop
   endfacet
   facet normal 0.000000e+000 0.000000e+000 1.000000e+000
      outer loop
         vertex 2.891836e+000 -1.971620e+000 2.000000e+000
         vertex 3.153391e+000 -1.518593e+000 2.000000e+000
         vertex 1.500000e+000 -1.500000e+000 2.000000e+000
      endloop
   endfacet
   facet normal 0.000000e+000 0.000000e+000 1.000000e+000
      outer loop
         vertex 3.344505e+000 -1.031643e+000 2.000000e+000
         vertex 3.460908e+000 -5.216479e-001 2.000000e+000
         vertex 1.459567e+000 -3.459238e-001 2.000000e+000
      endloop
   endfacet
   facet normal -0.000000e+000 0.000000e+000 1.000000e+000
      outer loop
         vertex 1.500000e+000 0.000000e+000 2.000000e+000
         vertex 1.459567e+000 -3.459238e-001 2.000000e+000
         vertex 3.460908e+000 -5.216479e-001 2.000000e+000
      endloop
   endfacet
   facet normal -0.000000e+000 0.000000e+000 1.000000e+000
      outer loop
         vertex 1.340449e+000 -6.731988e-001 2.000000e+000
         vertex 1.149067e+000 -9.641814e-001 2.000000e+000
         vertex 1.500000e+000 -1.500000e+000 2.000000e+000
      endloop
   endfacet
   facet normal -0.000000e+000 0.000000e+000 1.000000e+000
      outer loop
         vertex 8.957379e-001 -1.203185e+000 2.000000e+000
         vertex 5.941197e-001 -1.377324e+000 2.000000e+000
         vertex 1.500000e+000 -1.500000e+000 2.000000e+000
      endloop
   endfacet
   facet normal 0.000000e+000 0.000000e+000 1.000000e+000
      outer loop
         vertex -4.302048e-001 -1.436984e+000 2.000000e+000
         vertex -7.500000e-001 -1.299038e+000 2.000000e+000
         vertex -1.500000e+000 -1.500000e+000 2.000000e+000
      endloop
   endfacet
   facet normal 0.000000e+000 0.000000e+000 1.000000e+000
      outer loop
         vertex -1.029362e+000 -1.091061e+000 2.000000e+000
         vertex -1.253232e+000 -8.242635e-001 2.000000e+000
         vertex -1.500000e+000 -1.500000e+000 2.000000e+000
      endloop
   endfacet
   facet normal 0.000000e+000 0.000000e+000 1.000000e+000
      outer loop
         vertex -1.409539e+000 5.130302e-001 2.000000e+000
         vertex -1.253232e+000 8.242635e-001 2.000000e+000
         vertex -1.500000e+000 1.500000e+000 2.000000e+000
      endloop
   endfacet
   facet normal 0.000000e+000 0.000000e+000 1.000000e+000
      outer loop
         vertex -1.029362e+000 1.091061e+000 2.000000e+000
         vertex -7.500000e-001 1.299038e+000 2.000000e+000
         vertex -1.500000e+000 1.500000e+000 2.000000e+000
      endloop
   endfacet
   facet normal 0.000000e+000 -0.000000e+000 1.000000e+000
      outer loop
         vertex 5.941197e-001 1.377324e+000 2.000000e+000
         vertex 8.957379e-001 1.203185e+000 2.000000e+000
         vertex 1.500000e+000 1.500000e+000 2.000000e+000
      endloop
   endfacet
   facet normal 0.000000e+000 -0.000000e+000 1.000000e+000
      outer loop
         vertex 1.149067e+000 9.641814e-001 2.000000e+000
         vertex 1.340449e+000 6.731988e-001 2.000000e+000
         vertex 1.500000e+000 1.500000e+000 2.000000e+000
      endloop
   endfacet
   facet normal -0.000000e+000 0.000000e+000 1.000000e+000
      outer loop
         vertex 1.500000e+000 -1.500000e+000 2.000000e+000
         vertex -1.500000e+000 -1.500000e+000 2.000000e+000
         vertex -2.615553e-001 -3.490213e+000 2.000000e+000
      endloop
   endfacet
   facet normal 0.000000e+000 0.000000e+000 1.000000e+000
      outer loop
         vertex -1.500000e+000 -1.500000e+000 2.000000e+000
         vertex 1.500000e+000 -1.500000e+000 2.000000e+000
         vertex -8.721724e-002 -1.497462e+000 2.000000e+000
      endloop
   endfacet
   facet normal 0.000000e+000 0.000000e+000 1.000000e+000
      outer loop
         vertex -1.500000e+000 1.500000e+000 2.000000e+000
         vertex -1.500000e+000 -1.500000e+000 2.000000e+000
         vertex -1.489858e+000 -1.741394e-001 2.000000e+000
      endloop
   endfacet
   facet normal 0.000000e+000 0.000000e+000 1.000000e+000
      outer loop
         vertex 1.500000e+000 0.000000e+000 2.000000e+000
         vertex 3.500000e+000 0.000000e+000 2.000000e+000
         vertex 3.460908e+000 5.216479e-001 2.000000e+000
      endloop
   endfacet
   facet normal -0.000000e+000 0.000000e+000 1.000000e+000
      outer loop
         vertex 3.153391e+000 1.518593e+000 2.000000e+000
         vertex 1.500000e+000 1.500000e+000 2.000000e+000
         vertex 3.344505e+000 1.031643e+000 2.000000e+000
      endloop
   endfacet
   facet normal 0.000000e+000 0.000000e+000 1.000000e+000
      outer loop
         vertex 1.500000e+000 1.500000e+000 2.000000e+000
         vertex 2.182214e+000 2.736410e+000 2.000000e+000
         vertex 1.750000e+000 3.031089e+000 2.000000e+000
      endloop
   endfacet
   facet normal 0.000000e+000 0.000000e+000 1.000000e+000
      outer loop
         vertex -1.500000e+000 1.500000e+000 2.000000e+000
         vertex -1.750000e+000 3.031089e+000 2.000000e+000
         vertex -2.182214e+000 2.736410e+000 2.000000e+000
      endloop
   endfacet
   facet normal 0.000000e+000 0.000000e+000 1.000000e+000
      outer loop
         vertex -1.500000e+000 1.500000e+000 2.000000e+000
         vertex -3.153391e+000 1.518593e+000 2.000000e+000
         vertex -3.344505e+000 1.031643e+000 2.000000e+000
      endloop
   endfacet
   facet normal 0.000000e+000 0.000000e+000 1.000000e+000
      outer loop
         vertex -2.891836e+000 -1.971620e+000 2.000000e+000
         vertex -1.500000e+000 -1.500000e+000 2.000000e+000
         vertex -3.153391e+000 -1.518593e+000 2.000000e+000
      endloop
   endfacet
   facet normal 0.000000e+000 -0.000000e+000 1.000000e+000
      outer loop
         vertex 1.500000e+000 -1.500000e+000 2.000000e+000
         vertex 1.750000e+000 -3.031089e+000 2.000000e+000
         vertex 2.182214e+000 -2.736410e+000 2.000000e+000
      endloop
   endfacet
   facet normal 0.000000e+000 -0.000000e+000 1.000000e+000
      outer loop
         vertex 1.500000e+000 -1.500000e+000 2.000000e+000
         vertex 3.153391e+000 -1.518593e+000 2.000000e+000
         vertex 3.344505e+000 -1.031643e+000 2.000000e+000
      endloop
   endfacet
   facet normal 0.000000e+000 0.000000e+000 1.000000e+000
      outer loop
         vertex 1.500000e+000 -1.500000e+000 2.000000e+000
         vertex 1.149067e+000 -9.641814e-001 2.000000e+000
         vertex 8.957379e-001 -1.203185e+000 2.000000e+000
      endloop
   endfacet
   facet normal 0.000000e+000 0.000000e+000 1.000000e+000
      outer loop
         vertex -1.500000e+000 -1.500000e+000 2.000000e+000
         vertex -7.500000e-001 -1.299038e+000 2.000000e+000
         vertex -1.029362e+000 -1.091061e+000 2.000000e+000
      endloop
   endfacet
   facet normal 0.000000e+000 -0.000000e+000 1.000000e+000
      outer loop
         vertex -1.500000e+000 1.500000e+000 2.000000e+000
         vertex -1.253232e+000 8.242635e-001 2.000000e+000
         vertex -1.029362e+000 1.091061e+000 2.000000e+000
      endloop
   endfacet
   facet normal -0.000000e+000 0.000000e+000 1.000000e+000
      outer loop
         vertex 1.500000e+000 1.500000e+000 2.000000e+000
         vertex 8.957379e-001 1.203185e+000 2.000000e+000
         vertex 1.149067e+000 9.641814e-001 2.000000e+000
      endloop
   endfacet
   facet normal 0.000000e+000 0.000000e+000 1.000000e+000
      outer loop
         vertex -2.615553e-001 -3.490213e+000 2.000000e+000
         vertex -1.500000e+000 -1.500000e+000 2.000000e+000
         vertex -7.788233e-001 -3.412248e+000 2.000000e+000
      endloop
   endfacet
   facet normal 0.000000e+000 -0.000000e+000 1.000000e+000
      outer loop
         vertex -1.500000e+000 1.500000e+000 2.000000e+000
         vertex -1.489858e+000 -1.741394e-001 2.000000e+000
         vertex -1.489858e+000 1.741394e-001 2.000000e+000
      endloop
   endfacet
   facet normal 0.000000e+000 0.000000e+000 1.000000e+000
      outer loop
         vertex 3.344505e+000 1.031643e+000 2.000000e+000
         vertex 1.500000e+000 1.500000e+000 2.000000e+000
         vertex 1.340449e+000 6.731988e-001 2.000000e+000
      endloop
   endfacet
   facet normal 0.000000e+000 0.000000e+000 1.000000e+000
      outer loop
         vertex -7.788233e-001 -3.412248e+000 2.000000e+000
         vertex -1.500000e+000 -1.500000e+000 2.000000e+000
         vertex -1.278694e+000 -3.258058e+000 2.000000e+000
      endloop
   endfacet
   facet normal 0.000000e+000 0.000000e+000 1.000000e+000
      outer loop
         vertex -1.278694e+000 -3.258058e+000 2.000000e+000
         vertex -1.500000e+000 -1.500000e+000 2.000000e+000
         vertex -1.750000e+000 -3.031089e+000 2.000000e+000
      endloop
   endfacet
   facet normal 0.000000e+000 0.000000e+000 1.000000e+000
      outer loop
         vertex 2.891836e+000 1.971620e+000 2.000000e+000
         vertex 2.565681e+000 2.380605e+000 2.000000e+000
         vertex 1.500000e+000 1.500000e+000 2.000000e+000
      endloop
   endfacet
   facet normal -0.000000e+000 0.000000e+000 1.000000e+000
      outer loop
         vertex -2.565681e+000 2.380605e+000 2.000000e+000
         vertex -2.891836e+000 1.971620e+000 2.000000e+000
         vertex -1.500000e+000 1.500000e+000 2.000000e+000
      endloop
   endfacet
   facet normal 0.000000e+000 -0.000000e+000 1.000000e+000
      outer loop
         vertex -2.565681e+000 -2.380605e+000 2.000000e+000
         vertex -2.182214e+000 -2.736410e+000 2.000000e+000
         vertex -1.500000e+000 -1.500000e+000 2.000000e+000
      endloop
   endfacet
   facet normal 0.000000e+000 -0.000000e+000 1.000000e+000
      outer loop
         vertex 7.788233e-001 -3.412248e+000 2.000000e+000
         vertex 1.278694e+000 -3.258058e+000 2.000000e+000
         vertex 1.500000e+000 -1.500000e+000 2.000000e+000
      endloop
   endfacet
   facet normal 0.000000e+000 -0.000000e+000 1.000000e+000
      outer loop
         vertex 1.459567e+000 3.459238e-001 2.000000e+000
         vertex 1.500000e+000 0.000000e+000 2.000000e+000
         vertex 3.460908e+000 5.216479e-001 2.000000e+000
      endloop
   endfacet
   facet normal 0.000000e+000 0.000000e+000 1.000000e+000
      outer loop
         vertex -1.253232e+000 -8.242635e-001 2.000000e+000
         vertex -1.409539e+000 -5.130302e-001 2.000000e+000
         vertex -1.500000e+000 -1.500000e+000 2.000000e+000
      endloop
   endfacet
   facet normal 0.000000e+000 0.000000e+000 1.000000e+000
      outer loop
         vertex -7.500000e-001 1.299038e+000 2.000000e+000
         vertex -4.302048e-001 1.436984e+000 2.000000e+000
         vertex -1.500000e+000 1.500000e+000 2.000000e+000
      endloop
   endfacet
   facet normal 0.000000e+000 -0.000000e+000 1.000000e+000
      outer loop
         vertex 1.340449e+000 6.731988e-001 2.000000e+000
         vertex 1.459567e+000 3.459238e-001 2.000000e+000
         vertex 3.344505e+000 1.031643e+000 2.000000e+000
      endloop
   endfacet
   facet normal -0.000000e+000 0.000000e+000 1.000000e+000
      outer loop
         vertex 1.500000e+000 1.500000e+000 2.000000e+000
         vertex -1.500000e+000 1.500000e+000 2.000000e+000
         vertex -8.721724e-002 1.497462e+000 2.000000e+000
      endloop
   endfacet
   facet normal 0.000000e+000 0.000000e+000 1.000000e+000
      outer loop
         vertex 1.500000e+000 1.500000e+000 2.000000e+000
         vertex 1.278694e+000 3.258058e+000 2.000000e+000
         vertex 7.788233e-001 3.412248e+000 2.000000e+000
      endloop
   endfacet
   facet normal 0.000000e+000 -0.000000e+000 1.000000e+000
      outer loop
         vertex 1.500000e+000 -1.500000e+000 2.000000e+000
         vertex 2.565681e+000 -2.380605e+000 2.000000e+000
         vertex 2.891836e+000 -1.971620e+000 2.000000e+000
      endloop
   endfacet
   facet normal 0.000000e+000 0.000000e+000 1.000000e+000
      outer loop
         vertex 1.500000e+000 -1.500000e+000 2.000000e+000
         vertex -2.615553e-001 -3.490213e+000 2.000000e+000
         vertex 2.615553e-001 -3.490213e+000 2.000000e+000
      endloop
   endfacet
   facet normal 0.000000e+000 0.000000e+000 1.000000e+000
      outer loop
         vertex -1.489858e+000 -1.741394e-001 2.000000e+000
         vertex -1.500000e+000 -1.500000e+000 2.000000e+000
         vertex -1.409539e+000 -5.130302e-001 2.000000e+000
      endloop
   endfacet
   facet normal 0.000000e+000 -0.000000e+000 1.000000e+000
      outer loop
         vertex -1.500000e+000 1.500000e+000 2.000000e+000
         vertex -1.489858e+000 1.741394e-001 2.000000e+000
         vertex -1.409539e+000 5.130302e-001 2.000000e+000
      endloop
   endfacet
   facet normal 0.000000e+000 0.000000e+000 1.000000e+000
      outer loop
         vertex -8.721724e-002 1.497462e+000 2.000000e+000
         vertex -1.500000e+000 1.500000e+000 2.000000e+000
         vertex -4.302048e-001 1.436984e+000 2.000000e+000
      endloop
   endfacet
   facet normal -0.000000e+000 0.000000e+000 1.000000e+000
      outer loop
         vertex -7.788233e-001 3.412248e+000 2.000000e+000
         vertex -1.278694e+000 3.258058e+000 2.000000e+000
         vertex -1.500000e+000 1.500000e+000 2.000000e+000
      endloop
   endfacet
   facet normal 0.000000e+000 0.000000e+000 1.000000e+000
      outer loop
         vertex -3.460908e+000 5.216479e-001 2.000000e+000
         vertex -3.500000e+000 -1.902842e-015 2.000000e+000
         vertex -1.500000e+000 1.500000e+000 2.000000e+000
      endloop
   endfacet
   facet normal -0.000000e+000 -0.000000e+000 1.000000e+000
      outer loop
         vertex -3.460908e+000 -5.216479e-001 2.000000e+000
         vertex -3.344505e+000 -1.031643e+000 2.000000e+000
         vertex -1.500000e+000 -1.500000e+000 2.000000e+000
      endloop
   endfacet
   facet normal -0.000000e+000 0.000000e+000 1.000000e+000
      outer loop
         vertex 1.459567e+000 -3.459238e-001 2.000000e+000
         vertex 1.340449e+000 -6.731988e-001 2.000000e+000
         vertex 3.344505e+000 -1.031643e+000 2.000000e+000
      endloop
   endfacet
   facet normal -0.000000e+000 0.000000e+000 1.000000e+000
      outer loop
         vertex 2.604723e-001 -1.477212e+000 2.000000e+000
         vertex -8.721724e-002 -1.497462e+000 2.000000e+000
         vertex 1.500000e+000 -1.500000e+000 2.000000e+000
      endloop
   endfacet
   facet normal 0.000000e+000 0.000000e+000 1.000000e+000
      outer loop
         vertex -1.500000e+000 -1.500000e+000 2.000000e+000
         vertex -1.500000e+000 1.500000e+000 2.000000e+000
         vertex -3.500000e+000 -1.902842e-015 2.000000e+000
      endloop
   endfacet
   facet normal 0.000000e+000 -0.000000e+000 1.000000e+000
      outer loop
         vertex 1.340449e+000 -6.731988e-001 2.000000e+000
         vertex 1.500000e+000 -1.500000e+000 2.000000e+000
         vertex 3.344505e+000 -1.031643e+000 2.000000e+000
      endloop
   endfacet
   facet normal 0.000000e+000 0.000000e+000 1.000000e+000
      outer loop
         vertex -4.302048e-001 -1.436984e+000 2.000000e+000
         vertex -1.500000e+000 -1.500000e+000 2.000000e+000
         vertex -8.721724e-002 -1.497462e+000 2.000000e+000
      endloop
   endfacet
   facet normal 0.000000e+000 0.000000e+000 1.000000e+000
      outer loop
         vertex 7.788233e-001 -3.412248e+000 2.000000e+000
         vertex 1.500000e+000 -1.500000e+000 2.000000e+000
         vertex 2.615553e-001 -3.490213e+000 2.000000e+000
      endloop
   endfacet
   facet normal 0.000000e+000 0.000000e+000 1.000000e+000
      outer loop
         vertex -3.460908e+000 5.216479e-001 2.000000e+000
         vertex -1.500000e+000 1.500000e+000 2.000000e+000
         vertex -3.344505e+000 1.031643e+000 2.000000e+000
      endloop
   endfacet
   facet normal -0.000000e+000 -0.000000e+000 1.000000e+000
      outer loop
         vertex -3.500000e+000 -1.902842e-015 2.000000e+000
         vertex -3.460908e+000 -5.216479e-001 2.000000e+000
         vertex -1.500000e+000 -1.500000e+000 2.000000e+000
      endloop
   endfacet
   facet normal 0.000000e+000 0.000000e+000 1.000000e+000
      outer loop
         vertex -1.500000e+000 1.500000e+000 2.000000e+000
         vertex 1.500000e+000 1.500000e+000 2.000000e+000
         vertex -2.615553e-001 3.490213e+000 2.000000e+000
      endloop
   endfacet
   facet normal -0.000000e+000 0.000000e+000 1.000000e+000
      outer loop
         vertex 1.500000e+000 1.500000e+000 2.000000e+000
         vertex -8.721724e-002 1.497462e+000 2.000000e+000
         vertex 2.604723e-001 1.477212e+000 2.000000e+000
      endloop
   endfacet
   facet normal 0.000000e+000 0.000000e+000 1.000000e+000
      outer loop
         vertex 2.604723e-001 -1.477212e+000 2.000000e+000
         vertex 1.500000e+000 -1.500000e+000 2.000000e+000
         vertex 5.941197e-001 -1.377324e+000 2.000000e+000
      endloop
   endfacet
   facet normal 0.000000e+000 0.000000e+000 1.000000e+000
      outer loop
         vertex 7.788233e-001 3.412248e+000 2.000000e+000
         vertex 2.615553e-001 3.490213e+000 2.000000e+000
         vertex 1.500000e+000 1.500000e+000 2.000000e+000
      endloop
   endfacet
   facet normal -0.000000e+000 0.000000e+000 1.000000e+000
      outer loop
         vertex -2.615553e-001 3.490213e+000 2.000000e+000
         vertex -7.788233e-001 3.412248e+000 2.000000e+000
         vertex -1.500000e+000 1.500000e+000 2.000000e+000
      endloop
   endfacet
   facet normal 0.000000e+000 0.000000e+000 1.000000e+000
      outer loop
         vertex 5.941197e-001 1.377324e+000 2.000000e+000
         vertex 1.500000e+000 1.500000e+000 2.000000e+000
         vertex 2.604723e-001 1.477212e+000 2.000000e+000
      endloop
   endfacet
   facet normal -0.000000e+000 0.000000e+000 1.000000e+000
      outer loop
         vertex 2.615553e-001 3.490213e+000 2.000000e+000
         vertex -2.615553e-001 3.490213e+000 2.000000e+000
         vertex 1.500000e+000 1.500000e+000 2.000000e+000
      endloop
   endfacet
   facet normal 9.932384e-001 1.160929e-001 -0.000000e+000
      outer loop
         vertex 1.500000e+000 0.000000e+000 8.000000e+000
         vertex 1.500000e+000 0.000000e+000 2.000000e+000
         vertex 1.459567e+000 3.459238e-001 2.000000e+000
      endloop
   endfacet
   facet normal 8.354878e-001 5.495089e-001 -0.000000e+000
      outer loop
         vertex 1.340449e+000 6.731988e-001 2.000000e+000
         vertex 1.149067e+000 9.641814e-001 2.000000e+000
         vertex 1.149067e+000 9.641814e-001 8.000000e+000
      endloop
   endfacet
   facet normal 4.999998e-001 8.660255e-001 -0.000000e+000
      outer loop
         vertex 8.957379e-001 1.203185e+000 2.000000e+000
         vertex 5.941197e-001 1.377324e+000 2.000000e+000
         vertex 5.941197e-001 1.377324e+000 8.000000e+000
      endloop
   endfacet
   facet normal 5.814503e-002 9.983081e-001 -0.000000e+000
      outer loop
         vertex 2.604723e-001 1.477212e+000 2.000000e+000
         vertex -8.721724e-002 1.497462e+000 2.000000e+000
         vertex -8.721724e-002 1.497462e+000 8.000000e+000
      endloop
   endfacet
   facet normal -3.960800e-001 9.182160e-001 0.000000e+000
      outer loop
         vertex -4.302048e-001 1.436984e+000 2.000000e+000
         vertex -7.500000e-001 1.299038e+000 2.000000e+000
         vertex -7.500000e-001 1.299038e+000 8.000000e+000
      endloop
   endfacet
   facet normal -7.660444e-001 6.427876e-001 0.000000e+000
      outer loop
         vertex -1.029362e+000 1.091061e+000 2.000000e+000
         vertex -1.253232e+000 8.242635e-001 2.000000e+000
         vertex -1.253232e+000 8.242635e-001 8.000000e+000
      endloop
   endfacet
   facet normal -9.730449e-001 2.306158e-001 0.000000e+000
      outer loop
         vertex -1.409539e+000 5.130302e-001 2.000000e+000
         vertex -1.489858e+000 1.741394e-001 2.000000e+000
         vertex -1.489858e+000 1.741394e-001 8.000000e+000
      endloop
   endfacet
   facet normal -9.730449e-001 -2.306158e-001 0.000000e+000
      outer loop
         vertex -1.489858e+000 -1.741394e-001 2.000000e+000
         vertex -1.409539e+000 -5.130302e-001 2.000000e+000
         vertex -1.409539e+000 -5.130302e-001 8.000000e+000
      endloop
   endfacet
   facet normal -7.660444e-001 -6.427876e-001 0.000000e+000
      outer loop
         vertex -1.253232e+000 -8.242635e-001 2.000000e+000
         vertex -1.029362e+000 -1.091061e+000 2.000000e+000
         vertex -1.029362e+000 -1.091061e+000 8.000000e+000
      endloop
   endfacet
   facet normal -3.960800e-001 -9.182160e-001 0.000000e+000
      outer loop
         vertex -7.500000e-001 -1.299038e+000 2.000000e+000
         vertex -4.302048e-001 -1.436984e+000 2.000000e+000
         vertex -4.302048e-001 -1.436984e+000 8.000000e+000
      endloop
   endfacet
   facet normal 5.814503e-002 -9.983081e-001 0.000000e+000
      outer loop
         vertex -8.721724e-002 -1.497462e+000 2.000000e+000
         vertex 2.604723e-001 -1.477212e+000 2.000000e+000
         vertex 2.604723e-001 -1.477212e+000 8.000000e+000
      endloop
   endfacet
   facet normal 4.999998e-001 -8.660255e-001 0.000000e+000
      outer loop
         vertex 5.941197e-001 -1.377324e+000 2.000000e+000
         vertex 8.957379e-001 -1.203185e+000 2.000000e+000
         vertex 8.957379e-001 -1.203185e+000 8.000000e+000
      endloop
   endfacet
   facet normal 8.354878e-001 -5.495089e-001 0.000000e+000
      outer loop
         vertex 1.149067e+000 -9.641814e-001 2.000000e+000
         vertex 1.340449e+000 -6.731988e-001 2.000000e+000
         vertex 1.340449e+000 -6.731988e-001 8.000000e+000
      endloop
   endfacet
   facet normal 9.932384e-001 -1.160929e-001 0.000000e+000
      outer loop
         vertex 1.459567e+000 -3.459238e-001 2.000000e+000
         vertex 1.500000e+000 0.000000e+000 2.000000e+000
         vertex 1.500000e+000 0.000000e+000 8.000000e+000
      endloop
   endfacet
   facet normal 9.396926e-001 -3.420201e-001 0.000000e+000
      outer loop
         vertex 1.459567e+000 -3.459238e-001 8.000000e+000
         vertex 1.340449e+000 -6.731988e-001 8.000000e+000
         vertex 1.340449e+000 -6.731988e-001 2.000000e+000
      endloop
   endfacet
   facet normal 6.862417e-001 -7.273736e-001 0.000000e+000
      outer loop
         vertex 1.149067e+000 -9.641814e-001 8.000000e+000
         vertex 8.957379e-001 -1.203185e+000 8.000000e+000
         vertex 8.957379e-001 -1.203185e+000 2.000000e+000
      endloop
   endfacet
   facet normal 2.868033e-001 -9.579895e-001 0.000000e+000
      outer loop
         vertex 5.941197e-001 -1.377324e+000 8.000000e+000
         vertex 2.604723e-001 -1.477212e+000 8.000000e+000
         vertex 2.604723e-001 -1.477212e+000 2.000000e+000
      endloop
   endfacet
   facet normal -1.736482e-001 -9.848078e-001 -0.000000e+000
      outer loop
         vertex -8.721724e-002 -1.497462e+000 8.000000e+000
         vertex -4.302048e-001 -1.436984e+000 8.000000e+000
         vertex -4.302048e-001 -1.436984e+000 2.000000e+000
      endloop
   endfacet
   facet normal -5.971584e-001 -8.021233e-001 -0.000000e+000
      outer loop
         vertex -7.500000e-001 -1.299038e+000 8.000000e+000
         vertex -1.029362e+000 -1.091061e+000 8.000000e+000
         vertex -1.029362e+000 -1.091061e+000 2.000000e+000
      endloop
   endfacet
   facet normal -8.936326e-001 -4.487992e-001 -0.000000e+000
      outer loop
         vertex -1.253232e+000 -8.242635e-001 8.000000e+000
         vertex -1.409539e+000 -5.130302e-001 8.000000e+000
         vertex -1.409539e+000 -5.130302e-001 2.000000e+000
      endloop
   endfacet
   facet normal -1.000000e+000 -0.000000e+000 -0.000000e+000
      outer loop
         vertex -1.489858e+000 -1.741394e-001 8.000000e+000
         vertex -1.489858e+000 1.741394e-001 8.000000e+000
         vertex -1.489858e+000 1.741394e-001 2.000000e+000
      endloop
   endfacet
   facet normal -8.936326e-001 4.487992e-001 0.000000e+000
      outer loop
         vertex -1.409539e+000 5.130302e-001 8.000000e+000
         vertex -1.253232e+000 8.242635e-001 8.000000e+000
         vertex -1.253232e+000 8.242635e-001 2.000000e+000
      endloop
   endfacet
   facet normal -5.971584e-001 8.021233e-001 0.000000e+000
      outer loop
         vertex -1.029362e+000 1.091061e+000 8.000000e+000
         vertex -7.500000e-001 1.299038e+000 8.000000e+000
         vertex -7.500000e-001 1.299038e+000 2.000000e+000
      endloop
   endfacet
   facet normal -1.736482e-001 9.848078e-001 0.000000e+000
      outer loop
         vertex -4.302048e-001 1.436984e+000 8.000000e+000
         vertex -8.721724e-002 1.497462e+000 8.000000e+000
         vertex -8.721724e-002 1.497462e+000 2.000000e+000
      endloop
   endfacet
   facet normal 2.868033e-001 9.579895e-001 0.000000e+000
      outer loop
         vertex 2.604723e-001 1.477212e+000 8.000000e+000
         vertex 5.941197e-001 1.377324e+000 8.000000e+000
         vertex 5.941197e-001 1.377324e+000 2.000000e+000
      endloop
   endfacet
   facet normal 6.862417e-001 7.273736e-001 0.000000e+000
      outer loop
         vertex 8.957379e-001 1.203185e+000 8.000000e+000
         vertex 1.149067e+000 9.641814e-001 8.000000e+000
         vertex 1.149067e+000 9.641814e-001 2.000000e+000
      endloop
   endfacet
   facet normal 9.396926e-001 3.420201e-001 0.000000e+000
      outer loop
         vertex 1.340449e+000 6.731988e-001 8.000000e+000
         vertex 1.459567e+000 3.459238e-001 8.000000e+000
         vertex 1.459567e+000 3.459238e-001 2.000000e+000
      endloop
   endfacet
   facet normal 9.932384e-001 1.160929e-001 -0.000000e+000
      outer loop
         vertex 1.500000e+000 0.000000e+000 8.000000e+000
         vertex 1.459567e+000 3.459238e-001 2.000000e+000
         vertex 1.459567e+000 3.459238e-001 8.000000e+000
      endloop
   endfacet
   facet normal 5.814503e-002 9.983081e-001 0.000000e+000
      outer loop
         vertex 2.604723e-001 1.477212e+000 2.000000e+000
         vertex -8.721724e-002 1.497462e+000 8.000000e+000
         vertex 2.604723e-001 1.477212e+000 8.000000e+000
      endloop
   endfacet
   facet normal -9.730449e-001 2.306158e-001 0.000000e+000
      outer loop
         vertex -1.409539e+000 5.130302e-001 2.000000e+000
         vertex -1.489858e+000 1.741394e-001 8.000000e+000
         vertex -1.409539e+000 5.130302e-001 8.000000e+000
      endloop
   endfacet
   facet normal -3.960800e-001 -9.182160e-001 0.000000e+000
      outer loop
         vertex -7.500000e-001 -1.299038e+000 2.000000e+000
         vertex -4.302048e-001 -1.436984e+000 8.000000e+000
         vertex -7.500000e-001 -1.299038e+000 8.000000e+000
      endloop
   endfacet
   facet normal 8.354878e-001 -5.495089e-001 0.000000e+000
      outer loop
         vertex 1.149067e+000 -9.641814e-001 2.000000e+000
         vertex 1.340449e+000 -6.731988e-001 8.000000e+000
         vertex 1.149067e+000 -9.641814e-001 8.000000e+000
      endloop
   endfacet
   facet normal 6.862417e-001 -7.273736e-001 0.000000e+000
      outer loop
         vertex 1.149067e+000 -9.641814e-001 8.000000e+000
         vertex 8.957379e-001 -1.203185e+000 2.000000e+000
         vertex 1.149067e+000 -9.641814e-001 2.000000e+000
      endloop
   endfacet
   facet normal -5.971584e-001 -8.021233e-001 0.000000e+000
      outer loop
         vertex -7.500000e-001 -1.299038e+000 8.000000e+000
         vertex -1.029362e+000 -1.091061e+000 2.000000e+000
         vertex -7.500000e-001 -1.299038e+000 2.000000e+000
      endloop
   endfacet
   facet normal -8.936326e-001 4.487992e-001 0.000000e+000
      outer loop
         vertex -1.409539e+000 5.130302e-001 8.000000e+000
         vertex -1.253232e+000 8.242635e-001 2.000000e+000
         vertex -1.409539e+000 5.130302e-001 2.000000e+000
      endloop
   endfacet
   facet normal 2.868033e-001 9.579895e-001 0.000000e+000
      outer loop
         vertex 2.604723e-001 1.477212e+000 8.000000e+000
         vertex 5.941197e-001 1.377324e+000 2.000000e+000
         vertex 2.604723e-001 1.477212e+000 2.000000e+000
      endloop
   endfacet
   facet normal 9.396926e-001 3.420201e-001 -0.000000e+000
      outer loop
         vertex 1.459567e+000 3.459238e-001 2.000000e+000
         vertex 1.340449e+000 6.731988e-001 2.000000e+000
         vertex 1.340449e+000 6.731988e-001 8.000000e+000
      endloop
   endfacet
   facet normal -1.736482e-001 9.848078e-001 0.000000e+000
      outer loop
         vertex -8.721724e-002 1.497462e+000 2.000000e+000
         vertex -4.302048e-001 1.436984e+000 2.000000e+000
         vertex -4.302048e-001 1.436984e+000 8.000000e+000
      endloop
   endfacet
   facet normal -1.000000e+000 0.000000e+000 0.000000e+000
      outer loop
         vertex -1.489858e+000 1.741394e-001 2.000000e+000
         vertex -1.489858e+000 -1.741394e-001 2.000000e+000
         vertex -1.489858e+000 -1.741394e-001 8.000000e+000
      endloop
   endfacet
   facet normal -1.736482e-001 -9.848078e-001 0.000000e+000
      outer loop
         vertex -4.302048e-001 -1.436984e+000 2.000000e+000
         vertex -8.721724e-002 -1.497462e+000 2.000000e+000
         vertex -8.721724e-002 -1.497462e+000 8.000000e+000
      endloop
   endfacet
   facet normal 9.396926e-001 -3.420201e-001 0.000000e+000
      outer loop
         vertex 1.340449e+000 -6.731988e-001 2.000000e+000
         vertex 1.459567e+000 -3.459238e-001 2.000000e+000
         vertex 1.459567e+000 -3.459238e-001 8.000000e+000
      endloop
   endfacet
   facet normal 4.999998e-001 -8.660255e-001 0.000000e+000
      outer loop
         vertex 8.957379e-001 -1.203185e+000 8.000000e+000
         vertex 5.941197e-001 -1.377324e+000 8.000000e+000
         vertex 5.941197e-001 -1.377324e+000 2.000000e+000
      endloop
   endfacet
   facet normal -7.660444e-001 -6.427876e-001 -0.000000e+000
      outer loop
         vertex -1.029362e+000 -1.091061e+000 8.000000e+000
         vertex -1.253232e+000 -8.242635e-001 8.000000e+000
         vertex -1.253232e+000 -8.242635e-001 2.000000e+000
      endloop
   endfacet
   facet normal -7.660444e-001 6.427876e-001 0.000000e+000
      outer loop
         vertex -1.253232e+000 8.242635e-001 8.000000e+000
         vertex -1.029362e+000 1.091061e+000 8.000000e+000
         vertex -1.029362e+000 1.091061e+000 2.000000e+000
      endloop
   endfacet
   facet normal 4.999998e-001 8.660255e-001 0.000000e+000
      outer loop
         vertex 5.941197e-001 1.377324e+000 8.000000e+000
         vertex 8.957379e-001 1.203185e+000 8.000000e+000
         vertex 8.957379e-001 1.203185e+000 2.000000e+000
      endloop
   endfacet
   facet normal 8.354878e-001 5.495089e-001 0.000000e+000
      outer loop
         vertex 1.340449e+000 6.731988e-001 2.000000e+000
         vertex 1.149067e+000 9.641814e-001 8.000000e+000
         vertex 1.340449e+000 6.731988e-001 8.000000e+000
      endloop
   endfacet
   facet normal 5.814503e-002 -9.983081e-001 0.000000e+000
      outer loop
         vertex -8.721724e-002 -1.497462e+000 2.000000e+000
         vertex 2.604723e-001 -1.477212e+000 8.000000e+000
         vertex -8.721724e-002 -1.497462e+000 8.000000e+000
      endloop
   endfacet
   facet normal -8.936326e-001 -4.487992e-001 0.000000e+000
      outer loop
         vertex -1.253232e+000 -8.242635e-001 8.000000e+000
         vertex -1.409539e+000 -5.130302e-001 2.000000e+000
         vertex -1.253232e+000 -8.242635e-001 2.000000e+000
      endloop
   endfacet
   facet normal -3.960800e-001 9.182160e-001 0.000000e+000
      outer loop
         vertex -4.302048e-001 1.436984e+000 8.000000e+000
         vertex -4.302048e-001 1.436984e+000 2.000000e+000
         vertex -7.500000e-001 1.299038e+000 8.000000e+000
      endloop
   endfacet
   facet normal -5.971584e-001 8.021233e-001 0.000000e+000
      outer loop
         vertex -1.029362e+000 1.091061e+000 2.000000e+000
         vertex -1.029362e+000 1.091061e+000 8.000000e+000
         vertex -7.500000e-001 1.299038e+000 2.000000e+000
      endloop
   endfacet
   facet normal 6.862417e-001 7.273736e-001 -0.000000e+000
      outer loop
         vertex 1.149067e+000 9.641814e-001 2.000000e+000
         vertex 8.957379e-001 1.203185e+000 2.000000e+000
         vertex 8.957379e-001 1.203185e+000 8.000000e+000
      endloop
   endfacet
   facet normal 9.932384e-001 -1.160929e-001 0.000000e+000
      outer loop
         vertex 1.500000e+000 0.000000e+000 8.000000e+000
         vertex 1.459567e+000 -3.459238e-001 8.000000e+000
         vertex 1.459567e+000 -3.459238e-001 2.000000e+000
      endloop
   endfacet
   facet normal -9.730449e-001 -2.306158e-001 0.000000e+000
      outer loop
         vertex -1.489858e+000 -1.741394e-001 2.000000e+000
         vertex -1.409539e+000 -5.130302e-001 8.000000e+000
         vertex -1.489858e+000 -1.741394e-001 8.000000e+000
      endloop
   endfacet
   facet normal 2.868033e-001 -9.579895e-001 0.000000e+000
      outer loop
         vertex 2.604723e-001 -1.477212e+000 2.000000e+000
         vertex 5.941197e-001 -1.377324e+000 2.000000e+000
         vertex 5.941197e-001 -1.377324e+000 8.000000e+000
      endloop
   endfacet
   facet normal 9.972038e-001 7.473001e-002 -0.000000e+000
      outer loop
         vertex 3.500000e+000 0.000000e+000 2.000000e+000
         vertex 3.500000e+000 0.000000e+000 0.000000e+000
         vertex 3.460908e+000 5.216479e-001 0.000000e+000
      endloop
   endfacet
   facet normal 9.308738e-001 3.653409e-001 -0.000000e+000
      outer loop
         vertex 3.344505e+000 1.031643e+000 0.000000e+000
         vertex 3.153391e+000 1.518593e+000 0.000000e+000
         vertex 3.153391e+000 1.518593e+000 2.000000e+000
      endloop
   endfacet
   facet normal 7.818314e-001 6.234900e-001 -0.000000e+000
      outer loop
         vertex 2.891836e+000 1.971620e+000 0.000000e+000
         vertex 2.565681e+000 2.380605e+000 0.000000e+000
         vertex 2.565681e+000 2.380605e+000 2.000000e+000
      endloop
   endfacet
   facet normal 5.633201e-001 8.262388e-001 -0.000000e+000
      outer loop
         vertex 2.182214e+000 2.736410e+000 0.000000e+000
         vertex 1.750000e+000 3.031089e+000 0.000000e+000
         vertex 1.750000e+000 3.031089e+000 2.000000e+000
      endloop
   endfacet
   facet normal 2.947552e-001 9.555728e-001 -0.000000e+000
      outer loop
         vertex 1.278694e+000 3.258058e+000 0.000000e+000
         vertex 7.788233e-001 3.412248e+000 0.000000e+000
         vertex 7.788233e-001 3.412248e+000 2.000000e+000
      endloop
   endfacet
   facet normal 0.000000e+000 1.000000e+000 0.000000e+000
      outer loop
         vertex 2.615553e-001 3.490213e+000 0.000000e+000
         vertex -2.615553e-001 3.490213e+000 0.000000e+000
         vertex -2.615553e-001 3.490213e+000 2.000000e+000
      endloop
   endfacet
   facet normal -2.947552e-001 9.555728e-001 0.000000e+000
      outer loop
         vertex -7.788233e-001 3.412248e+000 0.000000e+000
         vertex -1.278694e+000 3.258058e+000 0.000000e+000
         vertex -1.278694e+000 3.258058e+000 2.000000e+000
      endloop
   endfacet
   facet normal -5.633201e-001 8.262388e-001 0.000000e+000
      outer loop
         vertex -1.750000e+000 3.031089e+000 0.000000e+000
         vertex -2.182214e+000 2.736410e+000 0.000000e+000
         vertex -2.182214e+000 2.736410e+000 2.000000e+000
      endloop
   endfacet
   facet normal -7.818314e-001 6.234900e-001 0.000000e+000
      outer loop
         vertex -2.565681e+000 2.380605e+000 0.000000e+000
         vertex -2.891836e+000 1.971620e+000 0.000000e+000
         vertex -2.891836e+000 1.971620e+000 2.000000e+000
      endloop
   endfacet
   facet normal -9.308738e-001 3.653409e-001 0.000000e+000
      outer loop
         vertex -3.153391e+000 1.518593e+000 0.000000e+000
         vertex -3.344505e+000 1.031643e+000 0.000000e+000
         vertex -3.344505e+000 1.031643e+000 2.000000e+000
      endloop
   endfacet
   facet normal -9.972038e-001 7.473001e-002 0.000000e+000
      outer loop
         vertex -3.460908e+000 5.216479e-001 0.000000e+000
         vertex -3.500000e+000 -1.902842e-015 0.000000e+000
         vertex -3.500000e+000 -1.902842e-015 2.000000e+000
      endloop
   endfacet
   facet normal -9.749279e-001 -2.225210e-001 0.000000e+000
      outer loop
         vertex -3.460908e+000 -5.216479e-001 0.000000e+000
         vertex -3.344505e+000 -1.031643e+000 0.000000e+000
         vertex -3.344505e+000 -1.031643e+000 2.000000e+000
      endloop
   endfacet
   facet normal -8.660253e-001 -5.000001e-001 0.000000e+000
      outer loop
         vertex -3.153391e+000 -1.518593e+000 0.000000e+000
         vertex -2.891836e+000 -1.971620e+000 0.000000e+000
         vertex -2.891836e+000 -1.971620e+000 2.000000e+000
      endloop
   endfacet
   facet normal -6.801728e-001 -7.330518e-001 0.000000e+000
      outer loop
         vertex -2.565681e+000 -2.380605e+000 0.000000e+000
         vertex -2.182214e+000 -2.736410e+000 0.000000e+000
         vertex -2.182214e+000 -2.736410e+000 2.000000e+000
      endloop
   endfacet
   facet normal -4.338838e-001 -9.009689e-001 0.000000e+000
      outer loop
         vertex -1.750000e+000 -3.031089e+000 0.000000e+000
         vertex -1.278694e+000 -3.258058e+000 0.000000e+000
         vertex -1.278694e+000 -3.258058e+000 2.000000e+000
      endloop
   endfacet
   facet normal -1.490425e-001 -9.888308e-001 0.000000e+000
      outer loop
         vertex -7.788233e-001 -3.412248e+000 0.000000e+000
         vertex -2.615553e-001 -3.490213e+000 0.000000e+000
         vertex -2.615553e-001 -3.490213e+000 2.000000e+000
      endloop
   endfacet
   facet normal 1.490425e-001 -9.888308e-001 0.000000e+000
      outer loop
         vertex 2.615553e-001 -3.490213e+000 0.000000e+000
         vertex 7.788233e-001 -3.412248e+000 0.000000e+000
         vertex 7.788233e-001 -3.412248e+000 2.000000e+000
      endloop
   endfacet
   facet normal 4.338838e-001 -9.009689e-001 0.000000e+000
      outer loop
         vertex 1.278694e+000 -3.258058e+000 0.000000e+000
         vertex 1.750000e+000 -3.031089e+000 0.000000e+000
         vertex 1.750000e+000 -3.031089e+000 2.000000e+000
      endloop
   endfacet
   facet normal 6.801728e-001 -7.330518e-001 0.000000e+000
      outer loop
         vertex 2.182214e+000 -2.736410e+000 0.000000e+000
         vertex 2.565681e+000 -2.380605e+000 0.000000e+000
         vertex 2.565681e+000 -2.380605e+000 2.000000e+000
      endloop
   endfacet
   facet normal 8.660253e-001 -5.000001e-001 0.000000e+000
      outer loop
         vertex 2.891836e+000 -1.971620e+000 0.000000e+000
         vertex 3.153391e+000 -1.518593e+000 0.000000e+000
         vertex 3.153391e+000 -1.518593e+000 2.000000e+000
      endloop
   endfacet
   facet normal 9.749279e-001 -2.225210e-001 0.000000e+000
      outer loop
         vertex 3.344505e+000 -1.031643e+000 0.000000e+000
         vertex 3.460908e+000 -5.216479e-001 0.000000e+000
         vertex 3.460908e+000 -5.216479e-001 2.000000e+000
      endloop
   endfacet
   facet normal 9.972038e-001 -7.473001e-002 0.000000e+000
      outer loop
         vertex 3.500000e+000 0.000000e+000 0.000000e+000
         vertex 3.500000e+000 0.000000e+000 2.000000e+000
         vertex 3.460908e+000 -5.216479e-001 0.000000e+000
      endloop
   endfacet
   facet normal 9.308738e-001 -3.653409e-001 0.000000e+000
      outer loop
         vertex 3.344505e+000 -1.031643e+000 2.000000e+000
         vertex 3.153391e+000 -1.518593e+000 2.000000e+000
         vertex 3.153391e+000 -1.518593e+000 0.000000e+000
      endloop
   endfacet
   facet normal 7.818314e-001 -6.234900e-001 0.000000e+000
      outer loop
         vertex 2.891836e+000 -1.971620e+000 2.000000e+000
         vertex 2.565681e+000 -2.380605e+000 2.000000e+000
         vertex 2.565681e+000 -2.380605e+000 0.000000e+000
      endloop
   endfacet
   facet normal 5.633201e-001 -8.262388e-001 0.000000e+000
      outer loop
         vertex 2.182214e+000 -2.736410e+000 2.000000e+000
         vertex 1.750000e+000 -3.031089e+000 2.000000e+000
         vertex 1.750000e+000 -3.031089e+000 0.000000e+000
      endloop
   endfacet
   facet normal 2.947552e-001 -9.555728e-001 0.000000e+000
      outer loop
         vertex 1.278694e+000 -3.258058e+000 2.000000e+000
         vertex 7.788233e-001 -3.412248e+000 2.000000e+000
         vertex 7.788233e-001 -3.412248e+000 0.000000e+000
      endloop
   endfacet
   facet normal 0.000000e+000 -1.000000e+000 0.000000e+000
      outer loop
         vertex 2.615553e-001 -3.490213e+000 2.000000e+000
         vertex -2.615553e-001 -3.490213e+000 2.000000e+000
         vertex -2.615553e-001 -3.490213e+000 0.000000e+000
      endloop
   endfacet
   facet normal -2.947552e-001 -9.555728e-001 -0.000000e+000
      outer loop
         vertex -7.788233e-001 -3.412248e+000 2.000000e+000
         vertex -1.278694e+000 -3.258058e+000 2.000000e+000
         vertex -1.278694e+000 -3.258058e+000 0.000000e+000
      endloop
   endfacet
   facet normal -5.633201e-001 -8.262388e-001 -0.000000e+000
      outer loop
         vertex -1.750000e+000 -3.031089e+000 2.000000e+000
         vertex -2.182214e+000 -2.736410e+000 2.000000e+000
         vertex -2.182214e+000 -2.736410e+000 0.000000e+000
      endloop
   endfacet
   facet normal -7.818314e-001 -6.234900e-001 -0.000000e+000
      outer loop
         vertex -2.565681e+000 -2.380605e+000 2.000000e+000
         vertex -2.891836e+000 -1.971620e+000 2.000000e+000
         vertex -2.891836e+000 -1.971620e+000 0.000000e+000
      endloop
   endfacet
   facet normal -9.308738e-001 -3.653409e-001 -0.000000e+000
      outer loop
         vertex -3.153391e+000 -1.518593e+000 2.000000e+000
         vertex -3.344505e+000 -1.031643e+000 2.000000e+000
         vertex -3.344505e+000 -1.031643e+000 0.000000e+000
      endloop
   endfacet
   facet normal -9.972038e-001 -7.473001e-002 -0.000000e+000
      outer loop
         vertex -3.460908e+000 -5.216479e-001 2.000000e+000
         vertex -3.500000e+000 -1.902842e-015 2.000000e+000
         vertex -3.500000e+000 -1.902842e-015 0.000000e+000
      endloop
   endfacet
   facet normal -9.749279e-001 2.225210e-001 0.000000e+000
      outer loop
         vertex -3.460908e+000 5.216479e-001 2.000000e+000
         vertex -3.344505e+000 1.031643e+000 2.000000e+000
         vertex -3.344505e+000 1.031643e+000 0.000000e+000
      endloop
   endfacet
   facet normal -8.660253e-001 5.000001e-001 0.000000e+000
      outer loop
         vertex -3.153391e+000 1.518593e+000 2.000000e+000
         vertex -2.891836e+000 1.971620e+000 2.000000e+000
         vertex -2.891836e+000 1.971620e+000 0.000000e+000
      endloop
   endfacet
   facet normal -6.801728e-001 7.330518e-001 0.000000e+000
      outer loop
         vertex -2.565681e+000 2.380605e+000 2.000000e+000
         vertex -2.182214e+000 2.736410e+000 2.000000e+000
         vertex -2.182214e+000 2.736410e+000 0.000000e+000
      endloop
   endfacet
   facet normal -4.338838e-001 9.009689e-001 0.000000e+000
      outer loop
         vertex -1.750000e+000 3.031089e+000 2.000000e+000
         vertex -1.278694e+000 3.258058e+000 2.000000e+000
         vertex -1.278694e+000 3.258058e+000 0.000000e+000
      endloop
   endfacet
   facet normal -1.490425e-001 9.888308e-001 0.000000e+000
      outer loop
         vertex -7.788233e-001 3.412248e+000 2.000000e+000
         vertex -2.615553e-001 3.490213e+000 2.000000e+000
         vertex -2.615553e-001 3.490213e+000 0.000000e+000
      endloop
   endfacet
   facet normal 1.490425e-001 9.888308e-001 0.000000e+000
      outer loop
         vertex 2.615553e-001 3.490213e+000 2.000000e+000
         vertex 7.788233e-001 3.412248e+000 2.000000e+000
         vertex 7.788233e-001 3.412248e+000 0.000000e+000
      endloop
   endfacet
   facet normal 4.338838e-001 9.009689e-001 0.000000e+000
      outer loop
         vertex 1.278694e+000 3.258058e+000 2.000000e+000
         vertex 1.750000e+000 3.031089e+000 2.000000e+000
         vertex 1.750000e+000 3.031089e+000 0.000000e+000
      endloop
   endfacet
   facet normal 6.801728e-001 7.330518e-001 0.000000e+000
      outer loop
         vertex 2.182214e+000 2.736410e+000 2.000000e+000
         vertex 2.565681e+000 2.380605e+000 2.000000e+000
         vertex 2.565681e+000 2.380605e+000 0.000000e+000
      endloop
   endfacet
   facet normal 8.660253e-001 5.000001e-001 0.000000e+000
      outer loop
         vertex 2.891836e+000 1.971620e+000 2.000000e+000
         vertex 3.153391e+000 1.518593e+000 2.000000e+000
         vertex 3.153391e+000 1.518593e+000 0.000000e+000
      endloop
   endfacet
   facet normal 9.749279e-001 2.225210e-001 0.000000e+000
      outer loop
         vertex 3.344505e+000 1.031643e+000 2.000000e+000
         vertex 3.460908e+000 5.216479e-001 2.000000e+000
         vertex 3.460908e+000 5.216479e-001 0.000000e+000
      endloop
   endfacet
   facet normal 9.972038e-001 7.473001e-002 -0.000000e+000
      outer loop
         vertex 3.500000e+000 0.000000e+000 2.000000e+000
         vertex 3.460908e+000 5.216479e-001 0.000000e+000
         vertex 3.460908e+000 5.216479e-001 2.000000e+000
      endloop
   endfacet
   facet normal 5.633201e-001 8.262388e-001 0.000000e+000
      outer loop
         vertex 2.182214e+000 2.736410e+000 0.000000e+000
         vertex 1.750000e+000 3.031089e+000 2.000000e+000
         vertex 2.182214e+000 2.736410e+000 2.000000e+000
      endloop
   endfacet
   facet normal -2.947552e-001 9.555728e-001 0.000000e+000
      outer loop
         vertex -7.788233e-001 3.412248e+000 0.000000e+000
         vertex -1.278694e+000 3.258058e+000 2.000000e+000
         vertex -7.788233e-001 3.412248e+000 2.000000e+000
      endloop
   endfacet
   facet normal -9.308738e-001 3.653409e-001 0.000000e+000
      outer loop
         vertex -3.153391e+000 1.518593e+000 0.000000e+000
         vertex -3.344505e+000 1.031643e+000 2.000000e+000
         vertex -3.153391e+000 1.518593e+000 2.000000e+000
      endloop
   endfacet
   facet normal -8.660253e-001 -5.000001e-001 0.000000e+000
      outer loop
         vertex -3.153391e+000 -1.518593e+000 0.000000e+000
         vertex -2.891836e+000 -1.971620e+000 2.000000e+000
         vertex -3.153391e+000 -1.518593e+000 2.000000e+000
      endloop
   endfacet
   facet normal -1.490425e-001 -9.888308e-001 0.000000e+000
      outer loop
         vertex -7.788233e-001 -3.412248e+000 0.000000e+000
         vertex -2.615553e-001 -3.490213e+000 2.000000e+000
         vertex -7.788233e-001 -3.412248e+000 2.000000e+000
      endloop
   endfacet
   facet normal 6.801728e-001 -7.330518e-001 0.000000e+000
      outer loop
         vertex 2.182214e+000 -2.736410e+000 0.000000e+000
         vertex 2.565681e+000 -2.380605e+000 2.000000e+000
         vertex 2.182214e+000 -2.736410e+000 2.000000e+000
      endloop
   endfacet
   facet normal 9.972038e-001 -7.473001e-002 0.000000e+000
      outer loop
         vertex 3.460908e+000 -5.216479e-001 2.000000e+000
         vertex 3.460908e+000 -5.216479e-001 0.000000e+000
         vertex 3.500000e+000 0.000000e+000 2.000000e+000
      endloop
   endfacet
   facet normal 5.633201e-001 -8.262388e-001 0.000000e+000
      outer loop
         vertex 2.182214e+000 -2.736410e+000 2.000000e+000
         vertex 1.750000e+000 -3.031089e+000 0.000000e+000
         vertex 2.182214e+000 -2.736410e+000 0.000000e+000
      endloop
   endfacet
   facet normal -2.947552e-001 -9.555728e-001 0.000000e+000
      outer loop
         vertex -7.788233e-001 -3.412248e+000 2.000000e+000
         vertex -1.278694e+000 -3.258058e+000 0.000000e+000
         vertex -7.788233e-001 -3.412248e+000 0.000000e+000
      endloop
   endfacet
   facet normal -9.308738e-001 -3.653409e-001 0.000000e+000
      outer loop
         vertex -3.153391e+000 -1.518593e+000 2.000000e+000
         vertex -3.344505e+000 -1.031643e+000 0.000000e+000
         vertex -3.153391e+000 -1.518593e+000 0.000000e+000
      endloop
   endfacet
   facet normal -8.660253e-001 5.000001e-001 0.000000e+000
      outer loop
         vertex -3.153391e+000 1.518593e+000 2.000000e+000
         vertex -2.891836e+000 1.971620e+000 0.000000e+000
         vertex -3.153391e+000 1.518593e+000 0.000000e+000
      endloop
   endfacet
   facet normal -1.490425e-001 9.888308e-001 0.000000e+000
      outer loop
         vertex -7.788233e-001 3.412248e+000 2.000000e+000
         vertex -2.615553e-001 3.490213e+000 0.000000e+000
         vertex -7.788233e-001 3.412248e+000 0.000000e+000
      endloop
   endfacet
   facet normal 6.801728e-001 7.330518e-001 0.000000e+000
      outer loop
         vertex 2.182214e+000 2.736410e+000 2.000000e+000
         vertex 2.565681e+000 2.380605e+000 0.000000e+000
         vertex 2.182214e+000 2.736410e+000 0.000000e+000
      endloop
   endfacet
   facet normal 9.749279e-001 2.225210e-001 -0.000000e+000
      outer loop
         vertex 3.460908e+000 5.216479e-001 0.000000e+000
         vertex 3.344505e+000 1.031643e+000 0.000000e+000
         vertex 3.344505e+000 1.031643e+000 2.000000e+000
      endloop
   endfacet
   facet normal 4.338838e-001 9.009689e-001 -0.000000e+000
      outer loop
         vertex 1.750000e+000 3.031089e+000 0.000000e+000
         vertex 1.278694e+000 3.258058e+000 0.000000e+000
         vertex 1.278694e+000 3.258058e+000 2.000000e+000
      endloop
   endfacet
   facet normal -4.338838e-001 9.009689e-001 0.000000e+000
      outer loop
         vertex -1.278694e+000 3.258058e+000 0.000000e+000
         vertex -1.750000e+000 3.031089e+000 0.000000e+000
         vertex -1.750000e+000 3.031089e+000 2.000000e+000
      endloop
   endfacet
   facet normal -9.749279e-001 2.225210e-001 0.000000e+000
      outer loop
         vertex -3.344505e+000 1.031643e+000 0.000000e+000
         vertex -3.460908e+000 5.216479e-001 0.000000e+000
         vertex -3.460908e+000 5.216479e-001 2.000000e+000
      endloop
   endfacet
   facet normal -7.818314e-001 -6.234900e-001 0.000000e+000
      outer loop
         vertex -2.891836e+000 -1.971620e+000 0.000000e+000
         vertex -2.565681e+000 -2.380605e+000 0.000000e+000
         vertex -2.565681e+000 -2.380605e+000 2.000000e+000
      endloop
   endfacet
   facet normal 0.000000e+000 -1.000000e+000 0.000000e+000
      outer loop
         vertex -2.615553e-001 -3.490213e+000 0.000000e+000
         vertex 2.615553e-001 -3.490213e+000 0.000000e+000
         vertex 2.615553e-001 -3.490213e+000 2.000000e+000
      endloop
   endfacet
   facet normal 7.818314e-001 -6.234900e-001 0.000000e+000
      outer loop
         vertex 2.565681e+000 -2.380605e+000 0.000000e+000
         vertex 2.891836e+000 -1.971620e+000 0.000000e+000
         vertex 2.891836e+000 -1.971620e+000 2.000000e+000
      endloop
   endfacet
   facet normal 9.749279e-001 -2.225210e-001 0.000000e+000
      outer loop
         vertex 3.460908e+000 -5.216479e-001 2.000000e+000
         vertex 3.344505e+000 -1.031643e+000 2.000000e+000
         vertex 3.344505e+000 -1.031643e+000 0.000000e+000
      endloop
   endfacet
   facet normal 4.338838e-001 -9.009689e-001 0.000000e+000
      outer loop
         vertex 1.750000e+000 -3.031089e+000 2.000000e+000
         vertex 1.278694e+000 -3.258058e+000 2.000000e+000
         vertex 1.278694e+000 -3.258058e+000 0.000000e+000
      endloop
   endfacet
   facet normal -4.338838e-001 -9.009689e-001 -0.000000e+000
      outer loop
         vertex -1.278694e+000 -3.258058e+000 2.000000e+000
         vertex -1.750000e+000 -3.031089e+000 2.000000e+000
         vertex -1.750000e+000 -3.031089e+000 0.000000e+000
      endloop
   endfacet
   facet normal -9.749279e-001 -2.225210e-001 -0.000000e+000
      outer loop
         vertex -3.344505e+000 -1.031643e+000 2.000000e+000
         vertex -3.460908e+000 -5.216479e-001 2.000000e+000
         vertex -3.460908e+000 -5.216479e-001 0.000000e+000
      endloop
   endfacet
   facet normal -7.818314e-001 6.234900e-001 0.000000e+000
      outer loop
         vertex -2.891836e+000 1.971620e+000 2.000000e+000
         vertex -2.565681e+000 2.380605e+000 2.000000e+000
         vertex -2.565681e+000 2.380605e+000 0.000000e+000
      endloop
   endfacet
   facet normal 0.000000e+000 1.000000e+000 0.000000e+000
      outer loop
         vertex -2.615553e-001 3.490213e+000 2.000000e+000
         vertex 2.615553e-001 3.490213e+000 2.000000e+000
         vertex 2.615553e-001 3.490213e+000 0.000000e+000
      endloop
   endfacet
   facet normal 7.818314e-001 6.234900e-001 0.000000e+000
      outer loop
         vertex 2.565681e+000 2.380605e+000 2.000000e+000
         vertex 2.891836e+000 1.971620e+000 2.000000e+000
         vertex 2.891836e+000 1.971620e+000 0.000000e+000
      endloop
   endfacet
   facet normal 9.308738e-001 3.653409e-001 0.000000e+000
      outer loop
         vertex 3.344505e+000 1.031643e+000 0.000000e+000
         vertex 3.153391e+000 1.518593e+000 2.000000e+000
         vertex 3.344505e+000 1.031643e+000 2.000000e+000
      endloop
   endfacet
   facet normal -9.972038e-001 7.473001e-002 0.000000e+000
      outer loop
         vertex -3.460908e+000 5.216479e-001 0.000000e+000
         vertex -3.500000e+000 -1.902842e-015 2.000000e+000
         vertex -3.460908e+000 5.216479e-001 2.000000e+000
      endloop
   endfacet
   facet normal 8.660253e-001 -5.000001e-001 0.000000e+000
      outer loop
         vertex 2.891836e+000 -1.971620e+000 0.000000e+000
         vertex 3.153391e+000 -1.518593e+000 2.000000e+000
         vertex 2.891836e+000 -1.971620e+000 2.000000e+000
      endloop
   endfacet
   facet normal -5.633201e-001 -8.262388e-001 0.000000e+000
      outer loop
         vertex -1.750000e+000 -3.031089e+000 2.000000e+000
         vertex -2.182214e+000 -2.736410e+000 0.000000e+000
         vertex -1.750000e+000 -3.031089e+000 0.000000e+000
      endloop
   endfacet
   facet normal 1.490425e-001 9.888308e-001 0.000000e+000
      outer loop
         vertex 2.615553e-001 3.490213e+000 2.000000e+000
         vertex 7.788233e-001 3.412248e+000 0.000000e+000
         vertex 2.615553e-001 3.490213e+000 0.000000e+000
      endloop
   endfacet
   facet normal -5.633201e-001 8.262388e-001 0.000000e+000
      outer loop
         vertex -1.750000e+000 3.031089e+000 2.000000e+000
         vertex -1.750000e+000 3.031089e+000 0.000000e+000
         vertex -2.182214e+000 2.736410e+000 2.000000e+000
      endloop
   endfacet
   facet normal 2.947552e-001 -9.555728e-001 0.000000e+000
      outer loop
         vertex 1.278694e+000 -3.258058e+000 0.000000e+000
         vertex 1.278694e+000 -3.258058e+000 2.000000e+000
         vertex 7.788233e-001 -3.412248e+000 0.000000e+000
      endloop
   endfacet
   facet normal 8.660253e-001 5.000001e-001 -0.000000e+000
      outer loop
         vertex 3.153391e+000 1.518593e+000 0.000000e+000
         vertex 2.891836e+000 1.971620e+000 0.000000e+000
         vertex 2.891836e+000 1.971620e+000 2.000000e+000
      endloop
   endfacet
   facet normal -9.972038e-001 -7.473001e-002 0.000000e+000
      outer loop
         vertex -3.500000e+000 -1.902842e-015 0.000000e+000
         vertex -3.460908e+000 -5.216479e-001 0.000000e+000
         vertex -3.460908e+000 -5.216479e-001 2.000000e+000
      endloop
   endfacet
   facet normal 1.490425e-001 -9.888308e-001 0.000000e+000
      outer loop
         vertex 7.788233e-001 -3.412248e+000 2.000000e+000
         vertex 2.615553e-001 -3.490213e+000 2.000000e+000
         vertex 2.615553e-001 -3.490213e+000 0.000000e+000
      endloop
   endfacet
   facet normal 2.947552e-001 9.555728e-001 0.000000e+000
      outer loop
         vertex 7.788233e-001 3.412248e+000 2.000000e+000
         vertex 1.278694e+000 3.258058e+000 2.000000e+000
         vertex 1.278694e+000 3.258058e+000 0.000000e+000
      endloop
   endfacet
   facet normal 9.308738e-001 -3.653409e-001 0.000000e+000
      outer loop
         vertex 3.344505e+000 -1.031643e+000 2.000000e+000
         vertex 3.153391e+000 -1.518593e+000 0.000000e+000
         vertex 3.344505e+000 -1.031643e+000 0.000000e+000
      endloop
   endfacet
   facet normal -6.801728e-001 7.330518e-001 0.000000e+000
      outer loop
         vertex -2.565681e+000 2.380605e+000 0.000000e+000
         vertex -2.565681e+000 2.380605e+000 2.000000e+000
         vertex -2.182214e+000 2.736410e+000 0.000000e+000
      endloop
   endfacet
   facet normal -6.801728e-001 -7.330518e-001 -0.000000e+000
      outer loop
         vertex -2.182214e+000 -2.736410e+000 2.000000e+000
         vertex -2.565681e+000 -2.380605e+000 2.000000e+000
         vertex -2.565681e+000 -2.380605e+000 0.000000e+000
      endloop
   endfacet
   facet normal 0.000000e+000 0.000000e+000 1.000000e+000
      outer loop
         vertex 1.459567e+000 -3.459238e-001 8.000000e+000
         vertex 1.500000e+000 0.000000e+000 8.000000e+000
         vertex 1.459567e+000 3.459238e-001 8.000000e+000
      endloop
   endfacet
   facet normal 0.000000e+000 0.000000e+000 1.000000e+000
      outer loop
         vertex 1.340449e+000 6.731988e-001 8.000000e+000
         vertex 1.149067e+000 9.641814e-001 8.000000e+000
         vertex 1.459567e+000 3.459238e-001 8.000000e+000
      endloop
   endfacet
   facet normal 0.000000e+000 0.000000e+000 1.000000e+000
      outer loop
         vertex 5.941197e-001 1.377324e+000 8.000000e+000
         vertex 2.604723e-001 1.477212e+000 8.000000e+000
         vertex 8.957379e-001 1.203185e+000 8.000000e+000
      endloop
   endfacet
   facet normal 0.000000e+000 0.000000e+000 1.000000e+000
      outer loop
         vertex -4.302048e-001 1.436984e+000 8.000000e+000
         vertex -7.500000e-001 1.299038e+000 8.000000e+000
         vertex -8.721724e-002 1.497462e+000 8.000000e+000
      endloop
   endfacet
   facet normal -0.000000e+000 0.000000e+000 1.000000e+000
      outer loop
         vertex -1.253232e+000 8.242635e-001 8.000000e+000
         vertex -1.409539e+000 5.130302e-001 8.000000e+000
         vertex -1.409539e+000 -5.130302e-001 8.000000e+000
      endloop
   endfacet
   facet normal 0.000000e+000 0.000000e+000 1.000000e+000
      outer loop
         vertex -1.489858e+000 1.741394e-001 8.000000e+000
         vertex -1.489858e+000 -1.741394e-001 8.000000e+000
         vertex -1.409539e+000 5.130302e-001 8.000000e+000
      endloop
   endfacet
   facet normal 0.000000e+000 0.000000e+000 1.000000e+000
      outer loop
         vertex -1.253232e+000 -8.242635e-001 8.000000e+000
         vertex -1.029362e+000 -1.091061e+000 8.000000e+000
         vertex -1.409539e+000 -5.130302e-001 8.000000e+000
      endloop
   endfacet
   facet normal 0.000000e+000 0.000000e+000 1.000000e+000
      outer loop
         vertex -4.302048e-001 -1.436984e+000 8.000000e+000
         vertex -8.721724e-002 -1.497462e+000 8.000000e+000
         vertex -7.500000e-001 -1.299038e+000 8.000000e+000
      endloop
   endfacet
   facet normal 0.000000e+000 0.000000e+000 1.000000e+000
      outer loop
         vertex 5.941197e-001 -1.377324e+000 8.000000e+000
         vertex 8.957379e-001 -1.203185e+000 8.000000e+000
         vertex 2.604723e-001 -1.477212e+000 8.000000e+000
      endloop
   endfacet
   facet normal 0.000000e+000 0.000000e+000 1.000000e+000
      outer loop
         vertex 1.340449e+000 -6.731988e-001 8.000000e+000
         vertex 1.459567e+000 -3.459238e-001 8.000000e+000
         vertex 1.149067e+000 -9.641814e-001 8.000000e+000
      endloop
   endfacet
   facet normal 0.000000e+000 0.000000e+000 1.000000e+000
      outer loop
         vertex 8.957379e-001 1.203185e+000 8.000000e+000
         vertex 2.604723e-001 1.477212e+000 8.000000e+000
         vertex 1.459567e+000 3.459238e-001 8.000000e+000
      endloop
   endfacet
   facet normal -0.000000e+000 0.000000e+000 1.000000e+000
      outer loop
         vertex -1.253232e+000 8.242635e-001 8.000000e+000
         vertex -1.409539e+000 -5.130302e-001 8.000000e+000
         vertex -1.029362e+000 -1.091061e+000 8.000000e+000
      endloop
   endfacet
   facet normal -0.000000e+000 0.000000e+000 1.000000e+000
      outer loop
         vertex -1.409539e+000 5.130302e-001 8.000000e+000
         vertex -1.489858e+000 -1.741394e-001 8.000000e+000
         vertex -1.409539e+000 -5.130302e-001 8.000000e+000
      endloop
   endfacet
   facet normal 0.000000e+000 0.000000e+000 1.000000e+000
      outer loop
         vertex 8.957379e-001 1.203185e+000 8.000000e+000
         vertex 1.459567e+000 3.459238e-001 8.000000e+000
         vertex 1.149067e+000 9.641814e-001 8.000000e+000
      endloop
   endfacet
   facet normal 0.000000e+000 0.000000e+000 1.000000e+000
      outer loop
         vertex 2.604723e-001 1.477212e+000 8.000000e+000
         vertex -8.721724e-002 1.497462e+000 8.000000e+000
         vertex 1.459567e+000 3.459238e-001 8.000000e+000
      endloop
   endfacet
   facet normal 0.000000e+000 0.000000e+000 1.000000e+000
      outer loop
         vertex -1.029362e+000 1.091061e+000 8.000000e+000
         vertex -1.253232e+000 8.242635e-001 8.000000e+000
         vertex -7.500000e-001 1.299038e+000 8.000000e+000
      endloop
   endfacet
   facet normal 0.000000e+000 0.000000e+000 1.000000e+000
      outer loop
         vertex 8.957379e-001 -1.203185e+000 8.000000e+000
         vertex 1.149067e+000 -9.641814e-001 8.000000e+000
         vertex 2.604723e-001 -1.477212e+000 8.000000e+000
      endloop
   endfacet
   facet normal -0.000000e+000 0.000000e+000 1.000000e+000
      outer loop
         vertex -8.721724e-002 1.497462e+000 8.000000e+000
         vertex -7.500000e-001 1.299038e+000 8.000000e+000
         vertex 1.459567e+000 3.459238e-001 8.000000e+000
      endloop
   endfacet
   facet normal 0.000000e+000 -0.000000e+000 1.000000e+000
      outer loop
         vertex 1.149067e+000 -9.641814e-001 8.000000e+000
         vertex 1.459567e+000 -3.459238e-001 8.000000e+000
         vertex 1.459567e+000 3.459238e-001 8.000000e+000
      endloop
   endfacet
   facet normal 0.000000e+000 0.000000e+000 1.000000e+000
      outer loop
         vertex 2.604723e-001 -1.477212e+000 8.000000e+000
         vertex 1.149067e+000 -9.641814e-001 8.000000e+000
         vertex -8.721724e-002 -1.497462e+000 8.000000e+000
      endloop
   endfacet
   facet normal 0.000000e+000 -0.000000e+000 1.000000e+000
      outer loop
         vertex -8.721724e-002 -1.497462e+000 8.000000e+000
         vertex 1.149067e+000 -9.641814e-001 8.000000e+000
         vertex 1.459567e+000 3.459238e-001 8.000000e+000
      endloop
   endfacet
   facet normal -0.000000e+000 -0.000000e+000 1.000000e+000
      outer loop
         vertex -1.029362e+000 -1.091061e+000 8.000000e+000
         vertex -7.500000e-001 -1.299038e+000 8.000000e+000
         vertex -8.721724e-002 -1.497462e+000 8.000000e+000
      endloop
   endfacet
   facet normal -0.000000e+000 0.000000e+000 1.000000e+000
      outer loop
         vertex -7.500000e-001 1.299038e+000 8.000000e+000
         vertex -1.253232e+000 8.242635e-001 8.000000e+000
         vertex 1.459567e+000 3.459238e-001 8.000000e+000
      endloop
   endfacet
   facet normal 0.000000e+000 -0.000000e+000 1.000000e+000
      outer loop
         vertex -1.029362e+000 -1.091061e+000 8.000000e+000
         vertex -8.721724e-002 -1.497462e+000 8.000000e+000
         vertex 1.459567e+000 3.459238e-001 8.000000e+000
      endloop
   endfacet
   facet normal 0.000000e+000 -0.000000e+000 1.000000e+000
      outer loop
         vertex -1.253232e+000 8.242635e-001 8.000000e+000
         vertex -1.029362e+000 -1.091061e+000 8.000000e+000
         vertex 1.459567e+000 3.459238e-001 8.000000e+000
      endloop
   endfacet
   facet normal -0.000000e+000 -0.000000e+000 -1.000000e+000
      outer loop
         vertex 3.344505e+000 1.031643e+000 0.000000e+000
         vertex 3.460908e+000 5.216479e-001 0.000000e+000
         vertex 3.500000e+000 0.000000e+000 0.000000e+000
      endloop
   endfacet
   facet normal -0.000000e+000 -0.000000e+000 -1.000000e+000
      outer loop
         vertex 2.565681e+000 2.380605e+000 0.000000e+000
         vertex 2.891836e+000 1.971620e+000 0.000000e+000
         vertex 3.153391e+000 1.518593e+000 0.000000e+000
      endloop
   endfacet
   facet normal -0.000000e+000 -0.000000e+000 -1.000000e+000
      outer loop
         vertex 1.278694e+000 3.258058e+000 0.000000e+000
         vertex 1.750000e+000 3.031089e+000 0.000000e+000
         vertex 2.182214e+000 2.736410e+000 0.000000e+000
      endloop
   endfacet
   facet normal 0.000000e+000 0.000000e+000 -1.000000e+000
      outer loop
         vertex 1.278694e+000 3.258058e+000 0.000000e+000
         vertex 2.615553e-001 3.490213e+000 0.000000e+000
         vertex 7.788233e-001 3.412248e+000 0.000000e+000
      endloop
   endfacet
   facet normal 0.000000e+000 0.000000e+000 -1.000000e+000
      outer loop
         vertex -2.615553e-001 3.490213e+000 0.000000e+000
         vertex -1.278694e+000 3.258058e+000 0.000000e+000
         vertex -7.788233e-001 3.412248e+000 0.000000e+000
      endloop
   endfacet
   facet normal 0.000000e+000 0.000000e+000 -1.000000e+000
      outer loop
         vertex -1.750000e+000 3.031089e+000 0.000000e+000
         vertex -2.565681e+000 2.380605e+000 0.000000e+000
         vertex -2.182214e+000 2.736410e+000 0.000000e+000
      endloop
   endfacet
   facet normal 0.000000e+000 0.000000e+000 -1.000000e+000
      outer loop
         vertex -2.891836e+000 1.971620e+000 0.000000e+000
         vertex -3.344505e+000 1.031643e+000 0.000000e+000
         vertex -3.153391e+000 1.518593e+000 0.000000e+000
      endloop
   endfacet
   facet normal 0.000000e+000 0.000000e+000 -1.000000e+000
      outer loop
         vertex -3.153391e+000 -1.518593e+000 0.000000e+000
         vertex -3.460908e+000 -5.216479e-001 0.000000e+000
         vertex -3.500000e+000 -1.902842e-015 0.000000e+000
      endloop
   endfacet
   facet normal 0.000000e+000 0.000000e+000 -1.000000e+000
      outer loop
         vertex -3.460908e+000 -5.216479e-001 0.000000e+000
         vertex -3.153391e+000 -1.518593e+000 0.000000e+000
         vertex -3.344505e+000 -1.031643e+000 0.000000e+000
      endloop
   endfacet
   facet normal 0.000000e+000 0.000000e+000 -1.000000e+000
      outer loop
         vertex -1.750000e+000 -3.031089e+000 0.000000e+000
         vertex -2.182214e+000 -2.736410e+000 0.000000e+000
         vertex -2.565681e+000 -2.380605e+000 0.000000e+000
      endloop
   endfacet
   facet normal 0.000000e+000 0.000000e+000 -1.000000e+000
      outer loop
         vertex -2.615553e-001 -3.490213e+000 0.000000e+000
         vertex -7.788233e-001 -3.412248e+000 0.000000e+000
         vertex -1.278694e+000 -3.258058e+000 0.000000e+000
      endloop
   endfacet
   facet normal -0.000000e+000 0.000000e+000 -1.000000e+000
      outer loop
         vertex 1.750000e+000 -3.031089e+000 0.000000e+000
         vertex 7.788233e-001 -3.412248e+000 0.000000e+000
         vertex 2.615553e-001 -3.490213e+000 0.000000e+000
      endloop
   endfacet
   facet normal 0.000000e+000 0.000000e+000 -1.000000e+000
      outer loop
         vertex 7.788233e-001 -3.412248e+000 0.000000e+000
         vertex 1.750000e+000 -3.031089e+000 0.000000e+000
         vertex 1.278694e+000 -3.258058e+000 0.000000e+000
      endloop
   endfacet
   facet normal -0.000000e+000 0.000000e+000 -1.000000e+000
      outer loop
         vertex 3.153391e+000 -1.518593e+000 0.000000e+000
         vertex 2.891836e+000 -1.971620e+000 0.000000e+000
         vertex 2.565681e+000 -2.380605e+000 0.000000e+000
      endloop
   endfacet
   facet normal -0.000000e+000 0.000000e+000 -1.000000e+000
      outer loop
         vertex 3.500000e+000 0.000000e+000 0.000000e+000
         vertex 3.460908e+000 -5.216479e-001 0.000000e+000
         vertex 3.344505e+000 -1.031643e+000 0.000000e+000
      endloop
   endfacet
   facet normal 0.000000e+000 0.000000e+000 -1.000000e+000
      outer loop
         vertex 3.344505e+000 1.031643e+000 0.000000e+000
         vertex 2.565681e+000 2.380605e+000 0.000000e+000
         vertex 3.153391e+000 1.518593e+000 0.000000e+000
      endloop
   endfacet
   facet normal 0.000000e+000 -0.000000e+000 -1.000000e+000
      outer loop
         vertex -2.565681e+000 2.380605e+000 0.000000e+000
         vertex -1.278694e+000 3.258058e+000 0.000000e+000
         vertex -2.615553e-001 3.490213e+000 0.000000e+000
      endloop
   endfacet
   facet normal 0.000000e+000 0.000000e+000 -1.000000e+000
      outer loop
         vertex -2.565681e+000 2.380605e+000 0.000000e+000
         vertex -3.344505e+000 1.031643e+000 0.000000e+000
         vertex -2.891836e+000 1.971620e+000 0.000000e+000
      endloop
   endfacet
   facet normal 0.000000e+000 0.000000e+000 -1.000000e+000
      outer loop
         vertex -2.565681e+000 -2.380605e+000 0.000000e+000
         vertex -2.615553e-001 -3.490213e+000 0.000000e+000
         vertex -1.278694e+000 -3.258058e+000 0.000000e+000
      endloop
   endfacet
   facet normal -0.000000e+000 0.000000e+000 -1.000000e+000
      outer loop
         vertex 3.344505e+000 -1.031643e+000 0.000000e+000
         vertex 3.153391e+000 -1.518593e+000 0.000000e+000
         vertex 2.565681e+000 -2.380605e+000 0.000000e+000
      endloop
   endfacet
   facet normal 0.000000e+000 -0.000000e+000 -1.000000e+000
      outer loop
         vertex -2.891836e+000 -1.971620e+000 0.000000e+000
         vertex -2.565681e+000 2.380605e+000 0.000000e+000
         vertex -2.615553e-001 3.490213e+000 0.000000e+000
      endloop
   endfacet
   facet normal 0.000000e+000 -0.000000e+000 -1.000000e+000
      outer loop
         vertex -3.500000e+000 -1.902842e-015 0.000000e+000
         vertex -3.344505e+000 1.031643e+000 0.000000e+000
         vertex -2.565681e+000 2.380605e+000 0.000000e+000
      endloop
   endfacet
   facet normal 0.000000e+000 0.000000e+000 -1.000000e+000
      outer loop
         vertex -2.891836e+000 -1.971620e+000 0.000000e+000
         vertex -2.615553e-001 -3.490213e+000 0.000000e+000
         vertex -2.565681e+000 -2.380605e+000 0.000000e+000
      endloop
   endfacet
   facet normal 0.000000e+000 0.000000e+000 -1.000000e+000
      outer loop
         vertex -3.153391e+000 -1.518593e+000 0.000000e+000
         vertex -2.565681e+000 2.380605e+000 0.000000e+000
         vertex -2.891836e+000 -1.971620e+000 0.000000e+000
      endloop
   endfacet
   facet normal 0.000000e+000 0.000000e+000 -1.000000e+000
      outer loop
         vertex -2.615553e-001 3.490213e+000 0.000000e+000
         vertex -2.615553e-001 -3.490213e+000 0.000000e+000
         vertex -2.891836e+000 -1.971620e+000 0.000000e+000
      endloop
   endfacet
   facet normal -0.000000e+000 -0.000000e+000 -1.000000e+000
      outer loop
         vertex 1.278694e+000 3.258058e+000 0.000000e+000
         vertex 2.182214e+000 2.736410e+000 0.000000e+000
         vertex 2.565681e+000 2.380605e+000 0.000000e+000
      endloop
   endfacet
   facet normal 0.000000e+000 -0.000000e+000 -1.000000e+000
      outer loop
         vertex -2.565681e+000 2.380605e+000 0.000000e+000
         vertex -1.750000e+000 3.031089e+000 0.000000e+000
         vertex -1.278694e+000 3.258058e+000 0.000000e+000
      endloop
   endfacet
   facet normal 0.000000e+000 0.000000e+000 -1.000000e+000
      outer loop
         vertex -3.344505e+000 1.031643e+000 0.000000e+000
         vertex -3.500000e+000 -1.902842e-015 0.000000e+000
         vertex -3.460908e+000 5.216479e-001 0.000000e+000
      endloop
   endfacet
   facet normal -0.000000e+000 0.000000e+000 -1.000000e+000
      outer loop
         vertex 2.565681e+000 -2.380605e+000 0.000000e+000
         vertex 2.182214e+000 -2.736410e+000 0.000000e+000
         vertex 1.750000e+000 -3.031089e+000 0.000000e+000
      endloop
   endfacet
   facet normal -0.000000e+000 -0.000000e+000 -1.000000e+000
      outer loop
         vertex -2.615553e-001 3.490213e+000 0.000000e+000
         vertex 2.615553e-001 3.490213e+000 0.000000e+000
         vertex 1.278694e+000 3.258058e+000 0.000000e+000
      endloop
   endfacet
   facet normal 0.000000e+000 0.000000e+000 -1.000000e+000
      outer loop
         vertex -2.615553e-001 -3.490213e+000 0.000000e+000
         vertex 1.750000e+000 -3.031089e+000 0.000000e+000
         vertex 2.615553e-001 -3.490213e+000 0.000000e+000
      endloop
   endfacet
   facet normal 0.000000e+000 0.000000e+000 -1.000000e+000
      outer loop
         vertex -1.750000e+000 -3.031089e+000 0.000000e+000
         vertex -2.565681e+000 -2.380605e+000 0.000000e+000
         vertex -1.278694e+000 -3.258058e+000 0.000000e+000
      endloop
   endfacet
   facet normal 0.000000e+000 0.000000e+000 -1.000000e+000
      outer loop
         vertex 2.565681e+000 -2.380605e+000 0.000000e+000
         vertex -2.615553e-001 -3.490213e+000 0.000000e+000
         vertex -2.615553e-001 3.490213e+000 0.000000e+000
      endloop
   endfacet
   facet normal 0.000000e+000 0.000000e+000 -1.000000e+000
      outer loop
         vertex -2.615553e-001 -3.490213e+000 0.000000e+000
         vertex 2.565681e+000 -2.380605e+000 0.000000e+000
         vertex 1.750000e+000 -3.031089e+000 0.000000e+000
      endloop
   endfacet
   facet normal 0.000000e+000 0.000000e+000 -1.000000e+000
      outer loop
         vertex 3.344505e+000 1.031643e+000 0.000000e+000
         vertex 2.565681e+000 -2.380605e+000 0.000000e+000
         vertex -2.615553e-001 3.490213e+000 0.000000e+000
      endloop
   endfacet
   facet normal 0.000000e+000 0.000000e+000 -1.000000e+000
      outer loop
         vertex 3.344505e+000 -1.031643e+000 0.000000e+000
         vertex 2.565681e+000 -2.380605e+000 0.000000e+000
         vertex 3.344505e+000 1.031643e+000 0.000000e+000
      endloop
   endfacet
   facet normal 0.000000e+000 0.000000e+000 -1.000000e+000
      outer loop
         vertex 3.344505e+000 -1.031643e+000 0.000000e+000
         vertex 3.344505e+000 1.031643e+000 0.000000e+000
         vertex 3.500000e+000 0.000000e+000 0.000000e+000
      endloop
   endfacet
   facet normal -0.000000e+000 -0.000000e+000 -1.000000e+000
      outer loop
         vertex 1.278694e+000 3.258058e+000 0.000000e+000
         vertex 2.565681e+000 2.380605e+000 0.000000e+000
         vertex 3.344505e+000 1.031643e+000 0.000000e+000
      endloop
   endfacet
   facet normal 0.000000e+000 0.000000e+000 -1.000000e+000
      outer loop
         vertex -3.500000e+000 -1.902842e-015 0.000000e+000
         vertex -2.565681e+000 2.380605e+000 0.000000e+000
         vertex -3.153391e+000 -1.518593e+000 0.000000e+000
      endloop
   endfacet
   facet normal 0.000000e+000 0.000000e+000 -1.000000e+000
      outer loop
         vertex 3.344505e+000 1.031643e+000 0.000000e+000
         vertex -2.615553e-001 3.490213e+000 0.000000e+000
         vertex 1.278694e+000 3.258058e+000 0.000000e+000
      endloop
   endfacet
endsolid
